<svg width="239" height="261" viewBox="0 0 239 261" fill="none" xmlns="http://www.w3.org/2000/svg">
<g clip-path="url(#clip0_15192_134)">
<path d="M150.542 121.887L98.5018 138.879L53.2271 158.861L40.5615 162.205C37.3361 165.274 33.953 168.381 30.2954 171.528C26.2837 174.989 22.5467 178.137 19.6742 180.418C16.4885 182.936 11.7678 187.656 9.36833 190.644C5.78896 195.128 2.95614 199.888 1.73763 203.546C-0.425864 210.155 0.637111 216.841 4.80643 223.017C10.1556 230.884 20.8154 238.909 33.2451 244.376C39.5779 247.169 50.2377 250.748 58.2621 252.754C71.5959 256.137 97.4002 259.796 111.6 260.346C114.471 260.464 118.326 260.464 118.483 260.346C118.798 260.149 121 255.941 123.557 250.71C132.29 232.89 138.583 216.173 142.006 201.894C144.051 193.241 145.663 181.716 146.725 168.067C147.001 164.251 147.119 151.467 146.883 147.14C146.529 140.059 145.899 134.318 144.917 128.692C144.759 127.866 144.719 127.118 144.799 127.078C144.955 126.96 145.427 126.803 151.839 124.953L150.542 121.886V121.887ZM138.663 128.849C139.135 128.849 140.393 140.925 140.708 148.557C140.787 150.169 140.747 151.231 140.668 151.231C140.354 151.231 134.02 147.495 129.498 144.662C125.564 142.184 118.09 137.228 116.91 136.284C116.517 136.008 116.555 135.969 119.782 134.868C125.249 133.019 138.23 128.849 138.663 128.849ZM112.151 137.582C112.505 137.582 113.409 138.092 115.573 139.43C123.675 144.504 134.69 150.641 139.41 152.686C140.865 153.316 141.022 153.079 137.679 155.361C130.52 160.239 121.59 165.038 110.655 169.876C108.727 170.742 107.115 171.41 107.076 171.41C106.998 171.41 107.233 170.428 107.547 169.247C110.183 159.451 111.678 149.539 111.757 141.594C111.797 137.661 111.797 137.661 112.151 137.543C112.072 137.582 112.111 137.582 112.151 137.582ZM106.684 139.667C106.919 139.903 106.762 148.713 106.447 151.113C105.739 156.856 104.637 162.205 102.829 168.224C102.397 169.679 102.002 170.898 101.925 170.978C101.767 171.174 96.378 165.903 94.6071 163.858C91.5383 160.317 89.1399 156.777 87.37 153.316C86.4647 151.546 85.0499 148.085 85.1669 147.967C85.7965 147.533 106.526 139.509 106.684 139.667ZM80.9579 149.775C80.9975 149.775 81.0362 149.775 81.0759 149.815C81.1542 149.893 81.4298 150.523 81.6658 151.231C82.924 154.653 85.7557 159.687 88.1949 162.914C90.87 166.455 94.3711 170.23 97.2812 172.708C98.2262 173.494 99.0907 174.242 99.2087 174.36C99.4457 174.596 99.524 174.556 93.1118 176.995C85.6785 179.827 77.5748 182.659 68.2912 185.648C66.074 186.364 63.858 187.084 61.6441 187.812C61.289 187.93 61.4081 187.733 62.4303 186.12C67.0319 178.922 74.034 164.801 77.9674 154.809C78.6356 153.078 79.3049 151.348 79.4229 150.954C79.5806 150.403 79.7769 150.206 80.2875 149.931C80.5642 149.855 80.8399 149.775 80.9579 149.775ZM73.0912 153.04C73.2092 153.12 71.2023 157.328 69.2362 161.183C65.4208 168.617 61.2515 175.933 55.6652 184.823C54.7213 186.357 53.8171 187.774 53.6991 187.931C53.5028 188.206 53.4234 188.127 52.7949 186.909C51.4573 184.273 50.3557 180.89 49.7658 177.783C49.1758 174.714 49.2938 169.365 49.9631 166.061C50.4737 163.623 50.4351 163.661 51.615 163.071C56.6488 160.514 72.9346 152.883 73.0912 153.04ZM140.944 155.794V157.446C140.944 166.218 140 178.253 138.622 187.025C138.387 188.559 138.189 189.817 138.151 189.857C138.151 189.857 137.01 189.543 135.673 189.149C129.772 187.3 123.361 184.586 117.579 181.401C113.762 179.315 108.217 175.893 108.374 175.736C108.413 175.697 110.066 174.832 111.992 173.809C119.703 169.797 127.097 165.47 133.509 161.183C135.909 159.569 139.527 156.974 140.315 156.266L140.944 155.794ZM43.3933 167.436C43.5509 167.436 43.5112 167.75 43.2753 169.167C43.1176 170.191 42.9213 172.078 42.843 173.376C42.5276 179.119 43.4726 183.368 46.3044 189.189C47.0906 190.802 47.7213 192.14 47.6806 192.178C47.4049 192.414 21.3657 200.046 13.1837 202.288C10.7456 202.956 8.62178 203.546 8.46303 203.586C8.18843 203.665 8.14875 203.625 8.26674 202.956C9.17096 197.175 13.5773 189.622 19.7128 183.25C23.8038 179.002 27.0689 176.524 32.6541 173.338C36.6657 171.057 42.8419 167.634 43.3139 167.477C43.315 167.436 43.3536 167.436 43.3933 167.436ZM104.756 178.411C104.796 178.371 105.74 178.884 106.88 179.552C115.298 184.43 127.02 188.954 137.01 191.274L137.916 191.471L136.656 192.178C131.425 195.089 114.236 202.248 96.6537 208.817C94.0965 209.761 91.579 210.705 91.1071 210.901C90.6351 211.097 90.2018 211.215 90.2018 211.177C90.2018 211.137 90.9108 209.76 91.814 208.069C96.7309 198.865 101.688 187.655 104.205 179.867C104.52 179.119 104.716 178.451 104.756 178.411ZM98.5018 180.457C98.5415 180.496 98.2261 181.322 97.8336 182.266C94.4119 190.566 89.9272 199.614 84.1843 209.762C82.7288 212.359 81.5092 214.443 81.4695 214.443C81.4309 214.443 80.2499 213.734 78.8341 212.869C70.4943 207.756 63.0996 201.462 58.2621 195.365L57.5541 194.5L61.1335 193.516C73.9568 190.016 84.8526 186.239 95.6701 181.598C97.2039 180.968 98.4621 180.457 98.5018 180.457ZM137.364 194.028C137.364 194.028 137.404 194.066 137.364 194.028C137.404 194.933 135.397 203.035 133.745 208.895C132.369 213.812 131.188 217.667 129.026 224.472C128.082 227.462 127.256 229.939 127.216 229.939C127.176 229.939 126.94 229.899 126.704 229.822C115.022 227.697 104.559 224.748 94.7251 220.814C91.9716 219.713 88.0383 217.943 87.8023 217.746C87.724 217.666 90.0838 216.566 93.0732 215.268C110.97 207.44 129.536 198.551 135.909 194.735C136.656 194.262 137.246 194.028 137.364 194.028ZM47.6419 197.095C47.7202 197.174 42.725 204.372 35.7229 214.166C33.2848 217.589 30.452 221.601 29.3901 223.095C28.3281 224.59 26.7149 226.95 25.8107 228.366L24.1578 230.923L22.3879 229.429C20.3027 227.697 16.6847 224 15.0715 221.955C11.6884 217.747 9.40802 213.302 8.50272 209.25C8.07045 207.361 8.07044 206.418 8.46303 206.3C9.05297 206.142 19.5551 203.664 29.3901 201.383C34.8573 200.124 41.1901 198.629 43.4716 198.079C45.753 197.528 47.6023 197.095 47.6419 197.095ZM52.6758 199.023L53.934 200.439C59.5986 206.771 65.3811 211.453 72.3822 215.543C73.6414 216.252 74.5854 216.881 74.506 216.921C74.2314 217.117 50.1969 225.652 39.0652 229.507C32.8117 231.709 27.6578 233.48 27.6191 233.48C27.5795 233.48 27.2255 233.244 26.8318 232.968L26.1239 232.457L27.2641 230.805C30.9615 225.456 35.6038 219.595 45.7123 207.401L52.6758 199.023ZM84.0663 221.483C84.105 221.444 85.8362 222.073 87.96 222.86C93.0743 224.787 97.1245 226.006 102.554 227.383C109.241 229.075 118.917 230.726 124.621 231.198C125.487 231.277 125.959 231.356 125.801 231.474C125.526 231.632 119.744 233.559 115.496 234.897C108.729 237.021 88.0791 243.117 71.2441 247.956C68.1367 248.86 65.4616 249.608 65.3039 249.648C64.9113 249.727 63.6123 249.372 63.6123 249.215C63.6123 249.137 64.5563 247.918 65.6975 246.58C71.361 239.814 76.987 232.262 81.6679 225.103C82.9637 223.134 84.0663 221.522 84.0663 221.483ZM77.1425 221.68C77.1822 221.719 74.3891 226.203 69.5118 233.912C67.4266 237.177 65.1054 240.875 64.2795 242.173C63.4933 243.431 62.3134 245.398 61.6441 246.5L60.5028 248.505L59.9128 248.348C58.4959 247.954 48.5451 244.453 45.9096 243.391C42.6446 242.093 39.2615 240.52 36.744 239.182C33.598 237.49 29.6646 234.973 29.9789 234.895C30.0572 234.855 35.4461 233.399 41.9366 231.63C59.1652 226.949 68.7234 224.235 74.9779 222.268C76.1203 221.916 77.1028 221.64 77.1425 221.68ZM126.115 233.165H126.154C126.312 233.558 119.939 251.259 117.618 256.844C117.108 258.102 116.911 258.417 116.636 258.378C115.967 258.339 106.724 257.041 101.098 256.214C91.3034 254.72 74.861 251.848 70.7314 250.904L69.7875 250.707L75.6473 249.369C88.2346 246.537 94.2928 245.003 100.428 243.115C108.178 240.756 115.848 237.805 123.597 234.187C124.817 233.637 125.839 233.204 126.115 233.165Z" fill="white"/>
<path d="M96.8857 0.579393C96.0201 0.462476 82.0556 5.49632 73.0487 9.15399C60.8937 14.1106 51.4546 18.8312 45.6324 22.9212C43.4689 24.4561 40.7552 27.1699 40.3229 28.2318C40.1652 28.6254 40.0869 29.0974 40.0869 29.5693L45.3578 34.5646L57.9054 38.5762L87.7609 43.9254L121.903 49.7862L122.257 46.8365C122.139 46.8365 122.06 46.7968 121.942 46.7968L117.457 46.0889L116.552 44.4767C111.911 36.2947 106.797 26.1466 103.807 19.3021C101.487 13.9915 99.2841 7.85611 98.0645 3.45082C97.3974 0.776757 97.3191 0.620153 96.8857 0.579393ZM96.2561 2.58628H96.2969C96.3355 2.6249 96.4931 3.72756 96.6508 5.02437C97.3191 10.5323 98.5397 15.8418 100.466 21.5847C101.922 25.9117 101.922 25.6757 100.23 25.164C96.2186 24.0635 78.2424 20.955 65.2229 19.1466C63.1377 18.8709 61.3678 18.5963 61.3678 18.5566C61.2102 18.399 70.7683 13.4037 74.9773 11.4376C80.3651 8.95877 95.1556 2.78257 96.2561 2.58628ZM58.3377 20.2085L59.8726 20.7191C68.2112 23.5519 89.1757 27.5635 100.741 28.5074C102.039 28.6254 103.14 28.7434 103.179 28.7434C103.219 28.7831 102.117 29.373 100.701 30.0413C95.1159 32.8344 88.9794 36.2561 84.7318 38.8915C83.4736 39.6778 82.3323 40.3074 82.1757 40.3074C82.0181 40.3074 81.1921 40.1497 80.3276 40.0317L78.754 39.7958L74.8207 35.9407C67.898 29.2154 62.4694 24.0228 60.3842 22.0556L58.3377 20.2085ZM56.7652 21.427L62.3117 28.3498C65.3398 32.1651 68.4086 35.9021 69.0779 36.727C69.7461 37.554 70.2975 38.2222 70.2578 38.2619C70.1001 38.3799 62.2334 36.845 58.0641 35.9021C53.7769 34.9185 52.007 34.4466 49.3716 33.6206L47.2081 32.9127V32.3614C47.2478 29.7259 50.5912 25.7926 56.2546 21.781L56.7652 21.427ZM103.888 30.8683C104.046 30.8683 104.242 31.2223 104.714 32.2842C106.051 35.2339 110.222 43.1799 111.243 44.7138C111.558 45.2254 112.108 45.2651 106.563 44.3598C93.2291 42.1963 88.9408 41.4884 88.9408 41.4101C88.9408 41.3704 89.3344 41.0958 89.8461 40.8201C93.9768 38.5387 98.1461 35.6286 101.843 32.5201C102.749 31.7725 103.575 31.0646 103.731 30.9466C103.77 30.8683 103.848 30.8286 103.888 30.8683Z" fill="white"/>
<path d="M40.5996 27.6812C40.5996 27.6812 39.7351 29.0584 40.561 31.1039C41.0726 32.3621 42.5668 33.896 44.2583 35.4695C44.2583 35.4695 61.7625 52.5404 63.8863 54.9796C73.5625 66.1499 77.7715 77.1637 78.1651 92.3478C78.4011 102.103 76.5519 110.678 71.9503 120.63C63.7683 138.488 46.5001 158.194 19.8711 180.065L23.7658 178.767C26.2833 176.878 29.7049 174.874 37.7292 170.467C56.2556 160.318 77.1032 150.996 102.671 141.398C139.488 127.551 200.025 111.345 234.481 106.075L238.061 105.524L237.51 104.658C234.364 99.7811 232.2 96.752 229.604 93.5266C222.053 84.1647 212.888 76.5737 201.677 70.2795C186.258 61.6652 166.315 54.9399 141.062 49.9436C136.303 48.9986 125.839 47.1901 117.343 45.8922C99.3269 43.1002 87.6847 41.1727 74.8614 38.9695C70.2599 38.1822 63.3757 37.0023 58.8128 36.0198C56.453 35.5081 51.9297 34.4462 48.3901 33.2266C45.5562 32.1261 41.4652 31.0245 40.5996 27.6812ZM50.7488 37.515C50.7874 37.4764 51.417 37.7113 52.243 37.987C53.7371 38.4975 55.6646 39.0875 57.9472 39.7182C59.673 40.1934 61.4043 40.6514 63.1387 41.0944C65.4985 41.6843 67.4657 42.2346 67.5043 42.2346C67.7799 42.5102 71.7529 55.2145 73.0905 60.0917C73.6011 61.9409 73.9947 63.5145 73.9561 63.5145C73.9154 63.5541 73.4831 62.8848 72.9725 61.9806C68.3699 53.878 61.0932 45.6563 52.6752 39.0478C51.5747 38.2626 50.7488 37.5547 50.7488 37.515ZM70.1011 42.8653C70.2974 42.8653 71.163 42.9833 72.2249 43.2193C78.9117 44.7134 90.909 46.9949 98.5793 48.2939C99.8772 48.4902 100.9 48.7272 100.9 48.8055C100.9 48.8849 100.427 49.1595 99.8375 49.4748C98.5396 50.1431 93.3084 53.2505 91.5783 54.4304C87.2116 57.3415 83.2783 60.4875 80.4466 63.3203C79.3064 64.4616 78.3217 65.4055 78.3217 65.4055C78.3217 65.4055 78.0868 64.7373 77.8894 63.9103C76.4746 58.4431 73.5239 50.3394 70.8487 44.6362C70.4165 43.732 70.0614 42.906 70.0614 42.8277C70.0614 42.9039 70.0614 42.8653 70.1011 42.8653ZM104.164 49.3547C104.4 49.433 104.794 50.7706 105.58 53.7203C107.036 59.4245 107.705 65.7959 107.469 71.7362C107.39 73.388 107.312 74.9219 107.232 75.1192L107.114 75.5118L105.069 74.8436C100.86 73.506 94.0164 71.5002 88.1555 69.8483C84.8111 68.9441 82.0984 68.1171 82.0984 68.0388C82.0984 67.8028 86.9757 62.9256 89.0608 61.0764C93.0328 57.5753 103.811 49.2367 104.164 49.3547ZM106.879 49.7483C106.997 49.6314 123.164 52.4235 130.52 53.8394C135.988 54.9013 143.933 56.5531 144.405 56.7505C144.641 56.8288 143.815 57.3007 141.18 58.4806C130.796 63.1616 123.086 67.3706 115.416 72.4838C113.411 73.8214 111.719 74.9219 111.679 74.9219C111.64 74.9219 111.601 73.7817 111.601 72.4044C111.601 64.9314 110.106 57.379 107.352 51.0065C107.076 50.378 106.84 49.788 106.879 49.7483ZM148.691 58.0087C148.809 58.1266 148.298 61.3134 147.826 63.2002C146.41 69.061 142.595 77.7547 137.915 85.9356C137.088 87.3912 136.341 88.5711 136.262 88.6108C136.183 88.6504 135.122 88.0594 133.902 87.3515C129.339 84.6764 124.148 82.16 118.483 79.7991C116.91 79.1309 115.533 78.5795 115.494 78.5012C115.218 78.2653 127.883 69.8869 134.571 65.8742C139.881 62.6499 148.534 57.851 148.691 58.0087ZM151.681 58.4806C152.035 58.4806 159.195 60.4478 162.93 61.5494C172.174 64.3028 182.794 68.1965 189.717 71.3436L192.589 72.6425L190.583 73.1145C173.67 77.0081 159.193 81.4928 145.23 87.1573C144.09 87.6293 143.066 88.023 142.988 88.023C142.909 88.023 143.302 87.1187 143.814 86.0171C148.023 77.0886 150.737 67.7664 151.405 59.8203C151.446 59.0706 151.563 58.4806 151.681 58.4806ZM80.4069 74.8436C80.5249 74.7256 85.9921 76.0235 88.9429 76.8494C93.4264 78.1086 102.946 81.2944 102.946 81.5303C102.946 81.57 101.884 82.4742 100.626 83.5758C95.473 87.8631 90.5164 92.3864 84.5762 98.1293C82.8064 99.8208 81.3122 101.198 81.2339 101.198C81.1545 101.198 81.1159 100.961 81.1545 100.647C82.0587 94.0383 81.8635 85.542 80.6043 76.9277C80.4852 75.8272 80.3672 74.8833 80.4069 74.8436ZM195.303 74.9626C195.382 75.0409 192.786 79.1319 191.134 81.452C188.774 84.8351 185.312 89.3198 177.484 99.1536C173.354 104.345 168.712 110.207 167.179 112.173C165.606 114.139 164.308 115.791 164.268 115.791C164.228 115.791 163.718 115.083 163.168 114.219C158.762 107.61 153.49 101.828 147.237 96.6362C146.057 95.6526 144.759 94.5907 144.327 94.2753C143.895 93.961 143.54 93.6457 143.54 93.6071C143.54 93.4891 150.226 90.6176 155.301 88.5721C164.191 84.9531 176.304 80.6261 185.391 77.833C190.15 76.3388 195.224 74.8833 195.303 74.9626ZM198.332 75.7489C198.489 75.7102 199.434 76.1822 200.574 76.8494C210.132 82.3166 219.494 89.3584 226.889 96.5965C228.973 98.642 234.126 103.991 234.048 104.031C234.048 104.031 232.238 104.189 230.114 104.345C213.554 105.604 192.354 109.104 171.978 114.021C170.602 114.336 169.382 114.611 169.303 114.611C169.225 114.611 170.758 113.077 172.686 111.229C184.644 99.7039 190.111 92.4272 196.562 79.4462C197.467 77.5187 198.253 75.8668 198.332 75.7489C198.293 75.7489 198.293 75.7489 198.332 75.7489ZM110.733 84.7171C111.285 84.834 116.398 87.2346 120.253 89.1621C123.792 90.9319 129.103 93.7647 129.379 93.9996C129.418 94.0393 127.53 95.0219 125.209 96.1631C117.814 99.8605 111.481 103.36 104.872 107.373C102.985 108.514 101.411 109.458 101.372 109.458C101.215 109.458 101.254 109.301 102.316 107.373C105.857 100.922 108.689 93.2134 110.302 85.6996C110.459 85.1097 110.616 84.7171 110.733 84.7171ZM105.62 85.661C105.738 85.779 104.4 90.6166 103.576 93.2531C101.962 98.2483 99.2486 104.503 96.6132 109.223C95.9836 110.324 95.0397 111.937 94.528 112.841L93.5444 114.415L91.3412 112.291C88.7852 109.813 86.7 108.278 84.0249 106.902C82.9619 106.352 82.136 105.88 82.136 105.802C82.136 105.488 88.8624 99.3907 94.0153 94.9843C97.7137 91.7975 105.502 85.543 105.62 85.661ZM136.891 98.524L138.819 99.7822C143.223 102.654 148.416 106.469 152.389 109.812C154.63 111.66 158.956 115.555 159.823 116.499L160.294 117.011L157.108 117.915C139.092 122.91 125.169 127.355 108.923 133.334C107.113 134.002 105.579 134.554 105.461 134.554C105.226 134.554 105.029 134.75 109.08 131.013C119.464 121.456 128.669 110.913 135.513 100.647L136.891 98.524ZM128.671 100.568C128.749 100.647 123.36 108.238 120.135 112.526C116.28 117.639 109.435 126.215 104.716 131.799C102.75 134.12 101.058 136.048 100.98 136.087C100.862 136.127 100.822 135.537 100.822 134.632C100.822 129.872 99.6026 124.798 97.4788 120.471C96.5735 118.662 96.4169 118.229 96.6143 118.033C97.3619 117.364 108.808 110.835 116.045 106.941C120.921 104.345 128.552 100.49 128.671 100.568ZM78.9513 112.763C79.0693 112.763 79.9746 113.235 80.9968 113.785C83.5143 115.162 85.7561 116.695 87.7619 118.348C87.8402 118.427 86.818 119.254 85.4804 120.236C81.7434 122.911 76.0799 127.199 72.7762 129.834C69.3138 132.587 69.1969 132.666 69.5895 132.076C72.1863 128.103 73.4831 125.861 74.8603 122.99C76.0799 120.434 77.2984 117.404 78.164 114.769C78.4794 113.628 78.873 112.763 78.9513 112.763ZM92.2079 123.147C92.4042 123.109 92.6402 123.462 93.7021 125.036C95.9439 128.378 97.6751 132.864 98.1084 136.482L98.1867 137.269L92.7989 139.355C83.1614 143.091 74.2725 146.789 68.253 149.541C66.5625 150.329 63.6117 151.745 61.6853 152.689C59.7578 153.671 58.1842 154.419 58.1842 154.38C58.1842 154.341 59.4038 153.436 60.898 152.335C72.6593 143.8 82.8471 134.438 90.4778 125.076C91.3037 124.092 92.0513 123.187 92.1296 123.148L92.2079 123.147ZM86.1111 124.641C86.2688 124.799 81.7841 129.873 78.7164 132.98C71.1244 140.73 63.6117 146.787 54.2895 152.687C53.1096 153.435 52.0477 154.103 51.9297 154.182C51.6541 154.339 52.008 153.946 56.099 149.501C58.6959 146.708 60.662 144.348 62.9038 141.438C64.3979 139.51 64.6736 139.236 66.8382 137.701C72.6186 133.531 85.9534 124.484 86.1111 124.641Z" fill="white"/>
</g>
<defs>
<clipPath id="clip0_15192_134">
<rect width="237.417" height="259.859" fill="white" transform="translate(0.647949 0.578125)"/>
</clipPath>
</defs>
</svg>
